<svg viewBox="0 0 437.258 437.29">
<path fill="#828282" d="M0.397,164.564c39.511,0,77.99,0,116.919,0c-24.896,67.077-13.651,124.521,50.109,162.771
	c44.96,26.97,91.304,21.777,133.632-9.189c23.913-17.495,38.503-41.684,44.969-70.768c6.369-28.657,1.677-55.883-10.864-82.792
	c2.706-0.224,4.268-0.466,5.829-0.467c31.562-0.022,63.126-0.017,96.165-0.017c0,4.031,0,7.534,0,11.037
	c-0.001,62.525,0.39,125.059-0.338,187.576c-0.144,12.295-2.771,25.293-7.444,36.652c-10.195,24.781-30.125,37.646-56.961,37.727
	c-96.781,0.283-193.565,0.221-290.348,0.055c-38.913-0.066-73.792-27.57-80.716-62.99c-0.444-2.275-0.91-4.6-0.911-6.9
	C0.388,300.084,0.397,232.911,0.397,164.564z"/>
<path fill="#828282" d="M0.416,135.488c0-23.156-1.114-45.471,0.306-67.623c1.484-23.146,15.196-39.961,33.82-52.62
	C48.821,5.539,64.664,0.323,82.251,0.349C176.66,0.486,271.082,1.297,365.474,0.01c42.168-0.575,67.281,26.156,70.51,60.7
	c2.299,24.615,0.445,49.619,0.445,75.711c-5.456,0-10.664,0.001-15.872,0c-32.576-0.004-65.158,0.266-97.729-0.289
	c-5.302-0.09-11.615-2.583-15.647-6.065c-46.848-40.459-114.544-40.227-161.323,0.782c-2.989,2.621-7.282,5.292-10.99,5.322
	c-43.212,0.349-86.427,0.201-129.643,0.146C3.964,136.314,2.704,135.895,0.416,135.488z M300.994,68.423
	c0,8.977,0.15,17.958-0.041,26.931c-0.205,9.64,4.953,14.306,13.929,14.47c17.946,0.329,35.91,0.376,53.854-0.017
	c8.941-0.196,14.134-5.341,14.184-14.616c0.095-17.954,0.213-35.911-0.063-53.86c-0.135-8.59-4.739-13.641-13.723-13.676
	c-18.285-0.073-36.573-0.158-54.856,0.016c-8.849,0.083-13.36,4.831-13.291,13.822C301.054,50.468,301,59.446,300.994,68.423z"/>
<path fill="#828282" d="M323.985,221.375c0.026,54.365-42.968,97.873-96.896,98.053c-53.562,0.18-97.435-43.682-97.617-97.586
	c-0.184-53.977,43.292-97.721,97.198-97.799C280.796,123.965,323.958,167.134,323.985,221.375z"/>
</svg>
